<svg width="167" height="36" viewBox="0 0 167 36" fill="none" xmlns="http://www.w3.org/2000/svg">
<g clip-path="url(#clip0_73_1491)">
<path d="M66.4843 18.8475L63.5987 11.1667C63.572 11.0975 63.525 11.038 63.4638 10.996C63.4027 10.9541 63.3302 10.9316 63.2561 10.9316C63.1819 10.9316 63.1095 10.9541 63.0483 10.996C62.9872 11.038 62.9402 11.0975 62.9135 11.1667L60.0278 18.8487C60.0078 18.9032 60.0014 18.9618 60.0092 19.0193C60.017 19.0768 60.0387 19.1316 60.0725 19.1788C60.1063 19.226 60.1511 19.2642 60.203 19.2903C60.255 19.3162 60.3124 19.3289 60.3704 19.3276H66.1663C66.2526 19.3286 66.336 19.2968 66.3998 19.2387C66.4636 19.1806 66.503 19.1004 66.5101 19.0145C66.5155 18.958 66.5067 18.901 66.4843 18.8487V18.8475ZM67.8289 23.1575H58.6832C58.6087 23.158 58.5359 23.1812 58.4747 23.224C58.4136 23.2667 58.3668 23.3271 58.3406 23.397L56.5306 28.1884C56.5046 28.2582 56.4581 28.3183 56.3972 28.3611C56.3363 28.4039 56.2638 28.4271 56.1893 28.4279H52.2242C52.1637 28.4287 52.1039 28.4145 52.0502 28.3865C51.9966 28.3584 51.9508 28.3175 51.9169 28.2672C51.883 28.217 51.8621 28.1592 51.8562 28.0989C51.8503 28.0386 51.8594 27.9778 51.8829 27.9219L61.004 5.53292C61.0313 5.46517 61.0792 5.40771 61.1408 5.3687C61.2026 5.32968 61.275 5.31109 61.3479 5.31557H65.1373C65.2092 5.31602 65.2796 5.33662 65.3404 5.37504C65.4012 5.41347 65.4499 5.46816 65.4811 5.53292L74.601 27.9219C74.6245 27.9779 74.6337 28.039 74.6277 28.0994C74.6217 28.1598 74.6007 28.2178 74.5668 28.2681C74.5327 28.3183 74.4868 28.3595 74.4329 28.3876C74.3791 28.4157 74.3192 28.4299 74.2584 28.4291H70.2995C70.2248 28.4285 70.1519 28.4051 70.0908 28.3622C70.0296 28.3192 69.983 28.2586 69.9569 28.1884L68.147 23.397C68.1298 23.3264 68.0888 23.2639 68.0308 23.22C67.9728 23.1762 67.9016 23.1537 67.8289 23.1563V23.1575ZM76.4859 13.1646H79.8861C79.9821 13.1664 80.0737 13.2051 80.142 13.2725C80.2104 13.3398 80.2502 13.4309 80.2532 13.5268V28.0693C80.2502 28.1651 80.2103 28.2558 80.1419 28.3229C80.0735 28.3898 79.9819 28.4279 79.8861 28.4291H76.4871C76.3912 28.4282 76.2994 28.3903 76.2307 28.3232C76.1621 28.2562 76.1219 28.1652 76.1188 28.0693V13.5268C76.1183 13.4785 76.1275 13.4308 76.1459 13.3862C76.1643 13.3416 76.1916 13.3012 76.226 13.2673C76.2603 13.2336 76.3012 13.207 76.346 13.1894C76.391 13.1717 76.439 13.1632 76.4871 13.1646H76.4859ZM92.6284 16.7035C92.6256 16.7996 92.5859 16.891 92.5175 16.9586C92.4493 17.0263 92.3575 17.0651 92.2613 17.0669H92.163C90.4758 17.0669 89.2528 17.4501 88.4706 18.2458C87.6884 19.0415 87.2967 20.3406 87.2967 22.1678V28.0435C87.2936 28.1393 87.254 28.2302 87.1859 28.2976C87.1179 28.3649 87.0266 28.4037 86.9308 28.4058H83.5785C83.4828 28.4037 83.3915 28.3649 83.3235 28.2976C83.2554 28.2302 83.2158 28.1393 83.2126 28.0435V13.5268C83.2158 13.4309 83.2555 13.3398 83.3239 13.2725C83.3922 13.2051 83.4838 13.1664 83.5797 13.1646H86.905C87.0013 13.1661 87.0931 13.2046 87.1618 13.272C87.2303 13.3394 87.2703 13.4306 87.2734 13.5268V16.3916H87.3458C87.6855 15.3034 88.3511 14.3458 89.2528 13.6484C90.1954 12.9836 91.3296 12.6454 92.4823 12.6857H92.653V16.7047H92.6284V16.7035ZM101.897 16.561C101.802 16.5626 101.711 16.6006 101.642 16.6674C101.574 16.7341 101.534 16.8243 101.531 16.9196V22.9635C101.486 23.4363 101.616 23.9078 101.897 24.2897C102.143 24.5525 102.558 24.6728 103.169 24.6728H103.512C103.607 24.675 103.699 24.7137 103.767 24.7811C103.835 24.8485 103.875 24.9394 103.878 25.0351V28.0681C103.875 28.1636 103.835 28.2542 103.767 28.3212C103.699 28.3882 103.607 28.4264 103.512 28.4279H102.07C100.577 28.4279 99.4288 28.0423 98.622 27.2957C97.814 26.527 97.4235 25.4182 97.4235 23.9029V16.9196C97.4201 16.8239 97.3799 16.7333 97.3113 16.6665C97.2427 16.5997 97.1509 16.5619 97.0552 16.561H94.9284C94.8325 16.5589 94.741 16.52 94.6729 16.4524C94.6048 16.3847 94.5653 16.2935 94.5624 16.1976V13.5268C94.5653 13.431 94.6049 13.3399 94.6729 13.2725C94.7411 13.2051 94.8326 13.1664 94.9284 13.1646H97.0564C97.1522 13.1633 97.2438 13.1253 97.3122 13.0583C97.3806 12.9913 97.4205 12.9005 97.4235 12.8048V7.41044C97.4267 7.31476 97.4666 7.22397 97.535 7.15696C97.6034 7.08994 97.695 7.05187 97.7907 7.05066H101.19C101.285 7.05187 101.377 7.08994 101.445 7.15696C101.514 7.22397 101.554 7.31476 101.557 7.41044V12.8048C101.56 12.9005 101.6 12.9913 101.668 13.0583C101.737 13.1253 101.828 13.1633 101.924 13.1646H104.369C104.465 13.1664 104.556 13.2051 104.625 13.2725C104.693 13.3398 104.733 13.4309 104.736 13.5268V16.1976C104.733 16.2937 104.693 16.3851 104.625 16.4527C104.557 16.5204 104.465 16.5592 104.369 16.561H101.897ZM117.427 23.8796C117.818 23.4659 118.121 22.9775 118.319 22.4436C118.516 21.9097 118.604 21.3414 118.576 20.7729C118.598 20.205 118.508 19.6383 118.31 19.1052C118.113 18.5722 117.813 18.0832 117.427 17.6662C116.599 16.9082 115.517 16.4877 114.394 16.4877C113.272 16.4877 112.19 16.9082 111.362 17.6662C110.971 18.0799 110.667 18.5684 110.47 19.1021C110.273 19.636 110.185 20.2043 110.213 20.7729C110.191 21.3408 110.281 21.9075 110.478 22.4405C110.675 22.9736 110.976 23.4626 111.362 23.8796C111.759 24.2747 112.233 24.5834 112.755 24.7863C113.277 24.9891 113.835 25.0818 114.395 25.0584C114.955 25.0896 115.516 25.0006 116.039 24.7973C116.562 24.594 117.036 24.2811 117.428 23.8796H117.427ZM109.6 27.949C108.451 27.2979 107.517 26.3269 106.911 25.1542C106.266 23.7833 105.932 22.287 105.932 20.7723C105.932 19.2575 106.266 17.7613 106.911 16.3904C107.524 15.2233 108.457 14.2546 109.6 13.5968C110.748 12.9505 112.047 12.6185 113.365 12.6341C114.442 12.6077 115.509 12.8481 116.471 13.334C117.322 13.7843 118.032 14.4592 118.526 15.2852H118.599V13.4998C118.603 13.4044 118.643 13.314 118.711 13.2471C118.779 13.1801 118.87 13.1418 118.965 13.14H122.316C122.412 13.1416 122.503 13.1797 122.572 13.2467C122.64 13.3136 122.68 13.4042 122.684 13.4998V28.0411C122.681 28.1375 122.641 28.2289 122.572 28.2967C122.504 28.3644 122.412 28.4031 122.315 28.4045H118.968C118.872 28.4027 118.78 28.3639 118.711 28.2962C118.643 28.2286 118.603 28.1372 118.601 28.0411V26.2605H118.527C118.034 27.0874 117.323 27.7628 116.471 28.213C115.509 28.697 114.442 28.937 113.365 28.9117C112.047 28.9274 110.748 28.5954 109.6 27.949ZM136.649 23.8796C137.039 23.4659 137.343 22.9774 137.54 22.4435C137.738 21.9097 137.825 21.3414 137.798 20.7729C137.82 20.205 137.73 19.6383 137.533 19.1052C137.335 18.5722 137.035 18.0832 136.649 17.6662C135.821 16.9078 134.738 16.4871 133.616 16.4871C132.494 16.4871 131.411 16.9078 130.583 17.6662C130.192 18.0801 129.889 18.5686 129.691 19.1024C129.495 19.6363 129.407 20.2045 129.435 20.7729C129.413 21.3408 129.504 21.9075 129.7 22.4405C129.898 22.9736 130.197 23.4626 130.584 23.8796C130.981 24.2747 131.455 24.5834 131.978 24.7863C132.5 24.9891 133.057 25.0818 133.617 25.0584C134.177 25.0895 134.738 25.0003 135.261 24.7971C135.785 24.5937 136.257 24.281 136.65 23.8796H136.649ZM131.563 28.2117C130.712 27.7613 130.001 27.086 129.507 26.2593H129.434V28.0423C129.43 28.1381 129.391 28.2289 129.323 28.2963C129.254 28.3636 129.163 28.4024 129.068 28.4045H125.668C125.572 28.4024 125.481 28.3636 125.412 28.2963C125.345 28.2289 125.304 28.1381 125.302 28.0423V5.65203C125.304 5.55643 125.345 5.46569 125.412 5.39851C125.481 5.33133 125.572 5.29286 125.668 5.29102H129.068C129.163 5.29253 129.254 5.3307 129.323 5.39765C129.392 5.4646 129.431 5.55522 129.435 5.6508V15.3073H129.509C130.002 14.4816 130.713 13.8065 131.563 13.3549C132.526 12.8711 133.591 12.6311 134.668 12.6562C135.986 12.6403 137.285 12.9737 138.433 13.6226C139.581 14.2724 140.516 15.2422 141.122 16.4137C141.81 17.7692 142.146 19.2756 142.102 20.795C142.133 22.3133 141.798 23.8166 141.124 25.1775C140.51 26.3453 139.576 27.3141 138.434 27.9711C137.285 28.6175 135.986 28.9496 134.668 28.9338C133.59 28.9426 132.524 28.6943 131.562 28.2093L131.563 28.2117ZM147.826 28.407H144.428C144.332 28.4055 144.24 28.3668 144.171 28.299C144.103 28.2313 144.063 28.1398 144.061 28.0435V5.65326C144.065 5.55725 144.104 5.46614 144.173 5.3989C144.241 5.33166 144.333 5.29346 144.429 5.29224H147.827C147.923 5.29437 148.014 5.33277 148.081 5.39961C148.149 5.46648 148.189 5.55675 148.193 5.65203V28.0423C148.194 28.1129 148.174 28.1821 148.136 28.2415C148.098 28.3008 148.043 28.3473 147.978 28.3751C147.93 28.3958 147.879 28.4059 147.827 28.4045V28.407H147.826ZM155.823 16.6814C155.231 17.1538 154.825 17.8187 154.674 18.5601C154.663 18.6137 154.665 18.6689 154.679 18.7217C154.692 18.7745 154.718 18.8236 154.754 18.8653C154.788 18.9069 154.832 18.94 154.883 18.9623C154.932 18.9845 154.987 18.9952 155.041 18.9936H161.498C161.549 18.9938 161.601 18.9829 161.649 18.9618C161.697 18.9407 161.738 18.9097 161.773 18.8709C161.808 18.8322 161.834 18.7866 161.85 18.7371C161.866 18.6875 161.871 18.6352 161.865 18.5835C161.767 17.8638 161.409 17.2045 160.86 16.7293C160.153 16.1669 159.269 15.8758 158.366 15.909C157.458 15.8844 156.565 16.1546 155.823 16.6801L155.822 16.6814H155.823ZM164.09 14.8039C165.41 16.2221 166.07 18.2274 166.069 20.8208V21.2567C166.066 21.3523 166.026 21.443 165.958 21.5099C165.889 21.5768 165.798 21.615 165.702 21.6165H154.92C154.866 21.6176 154.813 21.63 154.765 21.6529C154.716 21.6759 154.673 21.7089 154.638 21.7497C154.603 21.7906 154.577 21.8384 154.562 21.8899C154.547 21.9415 154.544 21.9955 154.551 22.0487C154.691 22.9505 155.152 23.7715 155.849 24.3609C156.705 25.0305 157.772 25.3716 158.858 25.3224C160.478 25.2998 162.029 24.6533 163.186 23.5173C163.224 23.4824 163.27 23.4564 163.319 23.4411C163.369 23.4257 163.421 23.4214 163.472 23.4284C163.524 23.4354 163.573 23.4536 163.616 23.4817C163.66 23.5098 163.697 23.5472 163.724 23.591L165.362 25.9253C165.409 25.9999 165.429 26.0877 165.42 26.1751C165.411 26.2624 165.373 26.3444 165.313 26.4079C164.5 27.1009 163.605 27.6915 162.648 28.1663C161.456 28.6979 160.162 28.9608 158.856 28.9362C157.328 28.971 155.813 28.6227 154.454 27.9232C153.229 27.2794 152.217 26.2925 151.544 25.0829C150.832 23.786 150.469 22.326 150.493 20.8466C150.466 19.3647 150.811 17.8997 151.496 16.5856C152.138 15.3801 153.114 14.3856 154.308 13.722C155.605 13.0149 157.062 12.6577 158.54 12.6857C160.935 12.6574 162.77 13.3807 164.09 14.8026V14.8039ZM80.6928 7.77514C80.6998 8.26852 80.5605 8.75289 80.2922 9.16702C80.0239 9.58116 79.6389 9.90645 79.1858 10.1018C78.7327 10.2971 78.2318 10.3538 77.7465 10.2645C77.2612 10.1752 76.8133 9.94407 76.4594 9.60025C76.1055 9.25646 75.8614 8.81543 75.7581 8.33295C75.6547 7.85046 75.6968 7.34817 75.8789 6.88959C76.061 6.43099 76.375 6.0367 76.7812 5.75653C77.1874 5.47636 77.6676 5.32292 78.1608 5.31557H78.1731C78.8314 5.31253 79.4644 5.5683 79.9358 6.02771C80.4071 6.48713 80.6791 7.11339 80.6928 7.77146V7.77391V7.77514Z" fill="#98A2B3"/>
<path d="M19.437 0.631633L4.00934 7.01533C3.15165 7.37062 3.16029 8.58921 4.02384 8.93141L19.5159 15.0749C20.877 15.6147 22.3929 15.6147 23.7541 15.0749L39.2463 8.93141C40.1094 8.58921 40.1185 7.37062 39.2604 7.01556L23.8331 0.631633C22.4256 0.0492214 20.8445 0.0492214 19.437 0.631633Z" fill="#98A2B3"/>
<path d="M23.0098 18.4293V33.7769C23.0098 34.5065 23.7458 35.0067 24.4244 34.7376L41.6872 28.037C41.8798 27.9607 42.0449 27.8284 42.1612 27.6569C42.2776 27.4857 42.3398 27.2833 42.3398 27.0763V11.7289C42.3398 10.999 41.6037 10.4991 40.9252 10.7681L23.6623 17.4687C23.4698 17.5451 23.3047 17.6775 23.1883 17.8489C23.072 18.0202 23.0098 18.2224 23.0098 18.4296" fill="#98A2B3"/>
<path d="M18.9783 19.2213L13.8551 21.695L13.3349 21.9465L2.52002 27.1284C1.83471 27.4591 0.959473 26.9595 0.959473 26.198V11.7933C0.959473 11.5177 1.10075 11.2799 1.2902 11.1009C1.36792 11.0236 1.4561 10.9574 1.55216 10.9045C1.81038 10.7494 2.179 10.708 2.49242 10.832L18.8922 17.33C19.7259 17.6607 19.7913 18.8288 18.9783 19.2215" fill="#98A2B3"/>
<path d="M18.9786 19.2213L13.8553 21.695L1.29053 11.1007C1.36827 11.0234 1.45645 10.9573 1.5525 10.9045C1.81071 10.7494 2.17934 10.708 2.49276 10.832L18.8926 17.33C19.7261 17.6607 19.7916 18.8288 18.9786 19.2215" fill="#9E9E9E" fill-opacity="0.25"/>
</g>
<defs>
<clipPath id="clip0_73_1491">
<rect width="167" height="35.6103" fill="white" transform="translate(0 0.194824)"/>
</clipPath>
</defs>
</svg>
