<svg width="187" height="36" viewBox="0 0 187 36" fill="none" xmlns="http://www.w3.org/2000/svg">
<g clip-path="url(#clip0_73_1454)">
<path d="M39.5023 2.92935C36.5032 1.55768 33.3181 0.55797 29.9935 0C29.575 0.72072 29.11 1.69716 28.7845 2.46438C25.2484 1.9529 21.7378 1.9529 18.2504 2.46438C17.9249 1.69716 17.4367 0.72072 17.0414 0C13.6936 0.55797 10.5085 1.55768 7.53035 2.92935C1.5089 11.8104 -0.118525 20.4822 0.695186 29.0378C4.69398 31.9438 8.55334 33.7108 12.3452 34.8733C13.2752 33.6178 14.1122 32.2693 14.8329 30.8512C13.4612 30.3397 12.1592 29.712 10.9038 28.968C11.2293 28.7357 11.5548 28.4799 11.857 28.2241C19.4362 31.6882 27.6454 31.6882 35.1314 28.2241C35.4569 28.4799 35.7592 28.7357 36.0847 28.968C34.8292 29.712 33.5273 30.3397 32.1556 30.8512C32.8763 32.2693 33.7133 33.6178 34.6432 34.8733C38.4328 33.7108 42.3154 31.9438 46.2932 29.0378C47.2928 19.1339 44.71 10.5318 39.5023 2.92935ZM15.8791 23.7603C13.6006 23.7603 11.7407 21.6912 11.7407 19.1571C11.7407 16.623 13.5541 14.5538 15.8791 14.5538C18.1807 14.5538 20.0638 16.623 20.0173 19.1571C20.0173 21.6912 18.1807 23.7603 15.8791 23.7603ZM31.156 23.7603C28.8775 23.7603 27.0152 21.6912 27.0152 19.1571C27.0152 16.623 28.831 14.5538 31.156 14.5538C33.4576 14.5538 35.3407 16.623 35.2942 19.1571C35.2942 21.6912 33.4808 23.7603 31.156 23.7603Z" fill="#98A2B3"/>
<path d="M62.4043 7.29932H72.2875C74.6589 7.29932 76.6815 7.67124 78.3322 8.41524C79.9828 9.15924 81.215 10.1822 82.0288 11.5073C82.8424 12.8326 83.2609 14.3437 83.2609 16.0643C83.2609 17.7381 82.8426 19.2494 81.9823 20.621C81.1221 21.9694 79.8202 23.062 78.0764 23.8526C76.3328 24.643 74.1706 25.0383 71.59 25.0383H62.4043V7.29932ZM71.4738 20.528C73.0779 20.528 74.3101 20.1327 75.1703 19.3191C76.0306 18.5286 76.4723 17.4126 76.4723 16.041C76.4723 14.7622 76.0771 13.7392 75.3099 12.9721C74.5426 12.2048 73.3802 11.8096 71.8225 11.8096H68.7304V20.528H71.4738Z" fill="#98A2B3"/>
<path d="M98.6546 25.0159C97.2829 24.6672 96.0508 24.1557 94.958 23.4582V19.2501C95.795 19.9011 96.8876 20.4126 98.2826 20.8311C99.6775 21.2496 101.026 21.4588 102.328 21.4588C102.932 21.4588 103.397 21.3891 103.7 21.2263C104.002 21.0636 104.165 20.8776 104.165 20.6451C104.165 20.3893 104.072 20.1801 103.909 20.0173C103.746 19.8546 103.421 19.7151 102.932 19.5756L99.8867 18.9015C98.1431 18.5062 96.9109 17.925 96.1669 17.2275C95.423 16.53 95.0743 15.5769 95.0743 14.4143C95.0743 13.4378 95.3998 12.5777 96.0274 11.857C96.6784 11.1362 97.5851 10.5782 98.7709 10.183C99.9565 9.78786 101.328 9.57861 102.932 9.57861C104.351 9.57861 105.652 9.71811 106.838 10.0436C108.024 10.3457 109 10.741 109.768 11.206V15.1816C108.977 14.7166 108.047 14.3446 107.024 14.0656C105.978 13.7866 104.909 13.6471 103.816 13.6471C102.235 13.6471 101.444 13.9261 101.444 14.4608C101.444 14.7166 101.561 14.9026 101.816 15.0421C102.072 15.1816 102.514 15.2979 103.165 15.4374L105.699 15.9024C107.35 16.1812 108.582 16.6927 109.396 17.4135C110.209 18.1342 110.605 19.1803 110.605 20.5986C110.605 22.1331 109.93 23.3652 108.582 24.2487C107.233 25.1554 105.327 25.597 102.863 25.597C101.421 25.5505 100.026 25.3645 98.6546 25.0159Z" fill="#98A2B3"/>
<path d="M116.884 24.482C115.442 23.7612 114.326 22.8081 113.605 21.5991C112.861 20.3901 112.513 19.0184 112.513 17.4839C112.513 15.9728 112.885 14.6011 113.652 13.4155C114.419 12.2065 115.535 11.2765 117 10.5792C118.464 9.9049 120.231 9.55615 122.277 9.55615C124.811 9.55615 126.904 10.0909 128.578 11.1603V15.7868C127.996 15.3915 127.299 15.0428 126.509 14.8104C125.718 14.5546 124.881 14.4384 123.998 14.4384C122.417 14.4384 121.208 14.7174 120.301 15.2985C119.418 15.8798 118.976 16.6238 118.976 17.5536C118.976 18.4604 119.394 19.2044 120.278 19.7856C121.138 20.3667 122.393 20.669 124.021 20.669C124.858 20.669 125.695 20.5529 126.509 20.2971C127.322 20.0414 128.043 19.7624 128.624 19.3904V23.8775C126.764 24.9935 124.602 25.5513 122.161 25.5513C120.092 25.5513 118.348 25.1795 116.884 24.482Z" fill="#98A2B3"/>
<path d="M135.206 24.482C133.741 23.7612 132.625 22.808 131.858 21.5757C131.091 20.3435 130.695 18.9719 130.695 17.4374C130.695 15.9263 131.091 14.5546 131.858 13.369C132.625 12.1833 133.741 11.2533 135.182 10.5792C136.624 9.9049 138.367 9.55615 140.369 9.55615C142.369 9.55615 144.112 9.88165 145.554 10.5792C146.995 11.2533 148.111 12.1833 148.878 13.369C149.645 14.5546 150.017 15.903 150.017 17.4374C150.017 18.9486 149.645 20.3435 148.878 21.5757C148.111 22.808 147.018 23.7845 145.554 24.482C144.089 25.1795 142.369 25.5513 140.369 25.5513C138.391 25.5513 136.67 25.1795 135.206 24.482ZM142.903 19.9949C143.508 19.3905 143.833 18.5534 143.833 17.5536C143.833 16.5308 143.531 15.7403 142.903 15.1358C142.276 14.5314 141.439 14.2291 140.392 14.2291C139.3 14.2291 138.46 14.5314 137.833 15.1358C137.228 15.7403 136.903 16.5308 136.903 17.5536C136.903 18.5766 137.205 19.3905 137.833 19.9949C138.46 20.6226 139.3 20.9247 140.392 20.9247C141.439 20.9015 142.299 20.5994 142.903 19.9949Z" fill="#98A2B3"/>
<path d="M165.572 10.4852V15.9489C164.921 15.5304 164.084 15.3211 163.061 15.3211C161.712 15.3211 160.665 15.7396 159.945 16.5532C159.224 17.367 158.852 18.6457 158.852 20.3661V25.0159H152.645V10.2295H158.736V14.9491C159.062 13.2286 159.62 11.95 160.364 11.1362C161.108 10.3225 162.084 9.88086 163.269 9.88086C164.153 9.88086 164.921 10.0901 165.572 10.4852Z" fill="#98A2B3"/>
<path d="M186.5 6.78857V25.0389H180.293V21.7143C179.758 22.9698 178.967 23.923 177.898 24.5739C176.827 25.2249 175.501 25.5504 173.92 25.5504C172.525 25.5504 171.293 25.2016 170.246 24.5274C169.201 23.8533 168.388 22.9 167.83 21.7143C167.272 20.5054 166.993 19.1569 166.993 17.6691C166.969 16.1113 167.272 14.7165 167.899 13.4842C168.503 12.2521 169.387 11.2989 170.503 10.6014C171.619 9.90388 172.897 9.55513 174.338 9.55513C177.292 9.55513 179.27 10.8339 180.293 13.4145V6.78857H186.5ZM179.363 19.8777C179.99 19.2732 180.316 18.4594 180.316 17.4831C180.316 16.5298 180.014 15.7626 179.386 15.1815C178.759 14.6002 177.922 14.298 176.873 14.298C175.826 14.298 174.989 14.6002 174.362 15.2047C173.734 15.8091 173.432 16.5763 173.432 17.5528C173.432 18.5292 173.734 19.2964 174.362 19.9009C174.989 20.5054 175.804 20.8077 176.849 20.8077C177.898 20.8077 178.735 20.5054 179.363 19.8777Z" fill="#98A2B3"/>
<path d="M88.9826 11.1135C90.7656 11.1135 92.2142 9.81222 92.2142 8.20737C92.2142 6.60228 90.7656 5.30127 88.9826 5.30127C87.197 5.30127 85.751 6.60228 85.751 8.20737C85.751 9.81222 87.197 11.1135 88.9826 11.1135Z" fill="#98A2B3"/>
<path d="M92.2142 13.1113C90.2379 13.9714 87.7736 13.9947 85.751 13.1113V25.038H92.2142V13.1113Z" fill="#98A2B3"/>
</g>
<defs>
<clipPath id="clip0_73_1454">
<rect width="186" height="36" fill="white" transform="translate(0.5)"/>
</clipPath>
</defs>
</svg>
