<svg width="189" height="36" viewBox="0 0 189 36" fill="none" xmlns="http://www.w3.org/2000/svg">
<g clip-path="url(#clip0_73_1464)">
<path fill-rule="evenodd" clip-rule="evenodd" d="M168.806 27.6419L175.777 18.2812L169.347 9.43652H174.854L178.577 14.9549L182.334 9.43652H187.81L181.284 18.2495L188.159 27.6419H182.748L178.514 21.7023L174.408 27.6419H168.806Z" fill="#98A2B3"/>
<path fill-rule="evenodd" clip-rule="evenodd" d="M151.278 18.9028C151.278 24.9114 154.566 28.1056 160.39 28.1056C165.841 28.1056 169.536 24.9114 169.536 18.9028V18.3968C169.536 12.3249 165.777 8.97266 160.39 8.97266C155.13 8.97266 151.278 12.2616 151.278 18.3968V18.9028ZM164.789 18.9041C164.789 22.2374 163.124 24.0471 160.39 24.0471C157.689 24.0471 156.024 22.2057 156.024 18.9041V18.4597C156.024 14.9042 157.783 13.0312 160.422 13.0312C163.092 13.0312 164.789 15.0312 164.789 18.4597V18.9041Z" fill="#98A2B3"/>
<path fill-rule="evenodd" clip-rule="evenodd" d="M135.352 24.312C136.34 26.6513 138.315 28.1054 141.343 28.1054C146.026 28.1054 149.086 24.6913 149.086 18.622V18.0846C149.086 12.0152 145.836 9.01215 141.47 8.98054C138.57 8.98054 136.531 10.2766 135.511 12.6474V3.29053H130.827V27.6312H134.97L135.352 24.312ZM144.338 18.6655C144.338 22.2741 142.668 24.0469 139.925 24.0469C137.308 24.0469 135.574 22.0842 135.574 18.6655V18.2856C135.574 15.1519 137.371 13.0309 139.988 13.0309C142.51 13.0309 144.338 14.8669 144.338 18.2224V18.6655Z" fill="#98A2B3"/>
<path fill-rule="evenodd" clip-rule="evenodd" d="M110.012 9.45792V33.9034H114.688V24.7486C115.674 26.8755 117.615 28.1768 120.541 28.1768C124.867 28.1768 128.271 25.0343 128.271 19.0033V18.4954C128.271 12.3374 125.217 8.97266 120.541 8.97266C117.519 8.97266 115.483 10.528 114.497 12.877L114.02 9.45792H110.012ZM123.524 18.8873C123.524 22.2427 121.79 24.0471 119.078 24.0471C116.462 24.0471 114.759 22.0211 114.759 18.7924V18.444C114.759 15.057 116.525 13.0312 119.173 13.0312C121.664 13.0312 123.524 14.8355 123.524 18.4757V18.8873Z" fill="#98A2B3"/>
<path fill-rule="evenodd" clip-rule="evenodd" d="M89.1973 18.9028C89.1973 24.9114 92.517 28.1056 98.3423 28.1056C103.792 28.1056 107.456 24.9114 107.456 18.9028V18.3968C107.456 12.3249 103.729 8.97266 98.3423 8.97266C93.0807 8.97266 89.1973 12.2616 89.1973 18.3968V18.9028ZM102.709 18.9041C102.709 22.2374 101.012 24.0471 98.3108 24.0471C95.6094 24.0471 93.9445 22.2057 93.9445 18.9041V18.4597C93.9445 14.9042 95.7036 13.0312 98.3423 13.0312C101.012 13.0312 102.709 15.0312 102.709 18.4597V18.9041Z" fill="#98A2B3"/>
<path fill-rule="evenodd" clip-rule="evenodd" d="M76.4165 27.6418H81.2057V19.2784C81.2057 15.4136 82.1635 14.0515 86.1226 14.0515H88.102V9.20459H86.9207C83.5046 9.20459 81.6208 10.6935 80.8864 13.608L80.2798 9.43544H76.4165V27.6418Z" fill="#98A2B3"/>
<path fill-rule="evenodd" clip-rule="evenodd" d="M55.2363 5.146V27.6417H63.9319C69.5961 27.6417 73.8603 24.3578 73.8603 17.0956V15.5483C73.8603 8.31757 69.3416 5.146 63.8047 5.146H55.2363ZM59.9837 9.20449H63.6061C66.8779 9.20449 69.113 11.2677 69.113 15.8066V16.9811C69.113 21.52 66.9426 23.5832 63.7682 23.5832H59.9837V9.20449Z" fill="#98A2B3"/>
<path d="M11.1103 0.461426L0.69043 7.07536L11.1103 13.6893L21.5319 7.07536L31.9519 13.6893L42.3717 7.07536L31.9519 0.461426L21.5319 7.07536L11.1103 0.461426Z" fill="#98A2B3"/>
<path d="M11.1103 26.917L0.69043 20.303L11.1103 13.689L21.5319 20.303L11.1103 26.917Z" fill="#98A2B3"/>
<path d="M21.5322 20.303L31.9522 13.689L42.372 20.303L31.9522 26.917L21.5322 20.303Z" fill="#98A2B3"/>
<path d="M21.5319 35.7357L11.1104 29.1217L21.5319 22.5078L31.9519 29.1217L21.5319 35.7357Z" fill="#98A2B3"/>
</g>
<defs>
<clipPath id="clip0_73_1464">
<rect width="189" height="36" fill="white"/>
</clipPath>
</defs>
</svg>
