<svg width="199" height="36" viewBox="0 0 199 36" fill="none" xmlns="http://www.w3.org/2000/svg">
<g clip-path="url(#clip0_73_1476)">
<path d="M4.59633 28.4429C3.86839 28.4445 3.15308 28.2528 2.52346 27.8875C1.89385 27.5221 1.3725 26.9962 1.01268 26.3634C0.658376 25.7351 0.481672 25.0222 0.501503 24.3011C0.521334 23.5801 0.736952 22.878 1.12526 22.27L8.50521 10.681C8.88293 10.0582 9.41918 9.54677 10.0592 9.199C10.6993 8.85123 11.4202 8.67958 12.1482 8.70158C12.8758 8.71902 13.5856 8.92945 14.2052 9.31132C14.8247 9.69319 15.3316 10.2328 15.674 10.8749C16.362 12.1758 16.276 13.7409 15.452 14.962L8.0768 26.551C7.70276 27.1338 7.1877 27.6128 6.57928 27.9435C5.97085 28.2742 5.28881 28.446 4.59633 28.4429Z" fill="#98A2B3"/>
<path d="M17.2549 28.4429C15.7664 28.4429 14.3967 27.6471 13.6775 26.3681C13.324 25.7415 13.1477 25.0304 13.1675 24.3112C13.1873 23.5921 13.4025 22.8919 13.7901 22.2857L21.1559 10.7232C21.5281 10.0916 22.0624 9.57111 22.7036 9.21564C23.3447 8.86013 24.0693 8.68265 24.8021 8.70156C26.3031 8.73439 27.6634 9.57403 28.3514 10.8874C29.0346 12.2008 28.9345 13.7753 28.0856 14.9933L20.7213 26.5557C20.3484 27.136 19.8354 27.6131 19.2296 27.9429C18.6238 28.2728 17.9447 28.4447 17.2549 28.4429Z" fill="#98A2B3"/>
<path d="M29.6305 28.5399C31.7288 28.5399 33.4299 26.8746 33.4299 24.8203C33.4299 22.7659 31.7288 21.1006 29.6305 21.1006C27.5321 21.1006 25.8311 22.7659 25.8311 24.8203C25.8311 26.8746 27.5321 28.5399 29.6305 28.5399Z" fill="#98A2B3"/>
<path d="M194.688 21.3161C195.835 21.3161 196.522 22.1322 196.522 23.4691V28.0503H198.08V23.3643C198.08 21.0909 197.01 19.7729 194.996 19.7729C194.208 19.7729 192.956 19.9886 192.211 21.438C192.038 21.0105 191.752 20.6379 191.383 20.3599C191.015 20.0818 190.579 19.9087 190.121 19.8588C189.832 19.806 189.538 19.7886 189.245 19.8073C188.604 19.8588 187.462 20.2575 187.036 21.1613V19.9464H185.475V28.0503H187.036V23.677C187.036 21.9759 188.149 21.3161 189.263 21.3161C190.308 21.3161 190.994 22.1151 190.994 23.4519V28.0503H192.546V23.677C192.546 22.323 193.358 21.3004 194.688 21.3161ZM179.748 26.6962C180.461 26.7119 181.149 26.4273 181.648 25.9113C182.148 25.3954 182.414 24.6933 182.387 23.9725C182.387 22.3402 181.186 21.3161 179.748 21.3161C178.308 21.3161 177.108 22.3402 177.108 23.9725C177.081 24.6918 177.346 25.3923 177.843 25.9066C178.341 26.4226 179.025 26.7087 179.735 26.6962H179.748ZM179.748 28.216C177.468 28.216 175.565 26.5321 175.565 23.9631C175.565 21.3943 177.468 19.7635 179.748 19.7635C182.028 19.7635 183.946 21.3943 183.946 23.9631C183.946 26.5321 182.017 28.2238 179.737 28.2238L179.748 28.216ZM167.537 23.9631L167.521 23.9725C167.521 21.4037 169.474 19.7729 171.769 19.7635C172.346 19.7523 172.918 19.8623 173.45 20.0864C173.981 20.3105 174.46 20.6437 174.854 21.0643L173.672 22.0713C173.421 21.8247 173.123 21.6304 172.797 21.4994C172.47 21.3685 172.121 21.3035 171.769 21.3082C170.331 21.3082 169.08 22.3324 169.08 23.9631C169.08 25.0655 169.735 26.0583 170.74 26.4804C171.746 26.9026 172.903 26.6681 173.672 25.8895L174.871 26.8964C174.475 27.3214 173.995 27.6585 173.46 27.8858C172.926 28.1131 172.35 28.2256 171.769 28.216C169.491 28.216 167.537 26.5321 167.537 23.9631ZM162.544 26.4945C162.542 26.3528 162.569 26.2123 162.621 26.0807C162.674 25.9492 162.752 25.8293 162.851 25.728C162.95 25.6266 163.068 25.5458 163.199 25.4901C163.329 25.4343 163.469 25.4048 163.611 25.4032C163.752 25.4048 163.892 25.4343 164.022 25.4901C164.153 25.5458 164.271 25.6266 164.37 25.728C164.469 25.8293 164.547 25.9492 164.599 26.0807C164.652 26.2123 164.678 26.3528 164.677 26.4945C164.663 26.7689 164.545 27.0277 164.347 27.218C164.148 27.4083 163.885 27.5158 163.611 27.5186C163.336 27.5158 163.072 27.4083 162.874 27.218C162.676 27.0277 162.558 26.7689 162.544 26.4945Z" fill="#98A2B3"/>
<path fill-rule="evenodd" clip-rule="evenodd" d="M166.81 9.64421H161.258L157.366 19.6775L153.495 9.64421H147.943L154.693 25.4986L150.494 35.9806H156.006L166.81 9.64421ZM133.044 18.4626C133.044 20.9956 135.258 22.6623 137.432 22.6623C139.57 22.6623 141.67 21.1112 141.67 18.4611C141.67 15.8109 139.57 14.2582 137.432 14.2582C135.258 14.2582 133.044 15.9266 133.044 18.4611V18.4626ZM141.67 27.3154V25.3094C140.544 27.0136 137.917 27.6578 136.569 27.6578C132.107 27.6578 127.643 24.1398 127.643 18.4611C127.643 12.7838 132.105 9.26585 136.569 9.26585C137.694 9.26585 140.32 9.64108 141.67 11.6112V9.65047H146.845V27.3185L141.67 27.317V27.3154ZM126.17 27.3154H120.995V25.1202C120.13 26.7463 118.033 27.6938 115.857 27.6938C111.356 27.6938 107.379 24.0992 107.379 18.533C107.379 12.862 111.356 9.26272 115.857 9.26272C118.03 9.26272 120.133 10.1696 120.995 11.7972V0.019043H126.17V27.3154ZM120.882 18.422C120.882 15.7733 118.97 14.2207 116.833 14.2207C114.619 14.2207 112.78 15.8859 112.78 18.422C112.78 21.0394 114.619 22.6967 116.831 22.6967C119.009 22.6998 120.882 20.9581 120.882 18.422ZM94.5835 17.9654C94.5835 15.2793 95.972 14.3708 97.809 14.3708C99.5711 14.3708 100.847 15.5435 100.847 17.8888V27.3123H106.06V16.7552C106.06 11.7238 103.583 9.26272 99.6447 9.26272C97.5822 9.26272 95.5202 10.4354 94.5818 12.2147V9.64421H89.372V27.3123H94.5835V17.9654ZM78.787 27.6156C73.8366 27.6156 69.7074 23.9835 69.7074 18.4204C69.7074 12.8542 73.832 9.25803 78.787 9.25803C83.7417 9.25803 87.9027 12.8542 87.9027 18.4204C87.9027 23.9866 83.737 27.6172 78.787 27.6172V27.6156ZM78.787 22.4716C80.9604 22.4716 82.7631 20.8799 82.7631 18.422C82.7631 16.0376 80.9621 14.4099 78.787 14.4099C78.2633 14.4017 77.7433 14.5002 77.2589 14.6994C76.7745 14.8986 76.3357 15.1943 75.9693 15.5685C75.6008 15.9447 75.3119 16.3912 75.119 16.8814C74.9265 17.3716 74.8346 17.8955 74.8486 18.422C74.8499 20.883 76.6497 22.4716 78.787 22.4716ZM60.362 14.3724C61.8991 14.3724 63.25 15.5841 63.25 17.8904V27.3154H68.4255V17.2806C68.4255 11.9458 65.8316 9.25959 61.674 9.25959C60.4386 9.25959 58.1121 9.63486 56.4236 12.3992C55.448 10.3557 53.5733 9.29556 50.8026 9.29556C49.8405 9.29065 48.8979 9.5629 48.0865 10.0797C47.275 10.5966 46.6298 11.3361 46.2279 12.21V9.64578H41.0117V27.3139H46.2232V17.9654C46.2232 15.2793 47.6866 14.3708 49.2609 14.3708C50.762 14.3708 52.1099 15.5435 52.1488 17.7762V27.3139H57.3616V17.9654C57.3616 15.3965 58.7125 14.374 60.362 14.374V14.3724Z" fill="#98A2B3"/>
</g>
<defs>
<clipPath id="clip0_73_1476">
<rect width="198" height="35.9615" fill="white" transform="translate(0.5 0.019043)"/>
</clipPath>
</defs>
</svg>
