<svg width="149" height="36" viewBox="0 0 149 36" fill="none" xmlns="http://www.w3.org/2000/svg">
<g clip-path="url(#clip0_73_1439)">
<path d="M58.791 12.9556H63.4648V27.5472H58.791V12.9556Z" fill="#E60023"/>
<path d="M64.4404 12.9557H68.9421V14.9507H69.028C70.1177 13.3831 71.5226 12.5283 73.5585 12.5283C76.7697 12.5283 78.6621 14.8082 78.6621 18.0571V27.5473H73.9885V18.9976C73.9885 17.4586 73.2143 16.404 71.6946 16.404C70.1464 16.404 69.1141 17.6867 69.1141 19.4821V27.5473H64.4404V12.9557Z" fill="#E60023"/>
<path d="M63.9312 9.05169C63.9312 7.51263 62.6759 6.26514 61.1277 6.26514C59.5794 6.26514 58.3242 7.51263 58.3242 9.05169C58.3242 10.5906 59.5794 11.8381 61.1277 11.8381C62.6759 11.8381 63.9312 10.5906 63.9312 9.05169Z" fill="#E60023"/>
<path d="M111.532 12.7448C111.399 12.7328 111.246 12.7275 111.067 12.7275C109.29 12.7275 108.085 13.497 107.053 15.2355H106.967V12.9555H102.494V27.547H107.168V20.9922C107.168 17.9551 108.86 16.5478 111.532 16.7934V12.7448Z" fill="#E60023"/>
<path d="M134.469 18.3415C132.604 17.9997 130.942 17.8572 130.942 16.8313C130.942 15.9192 131.83 15.4918 132.977 15.4918C134.267 15.4918 135.156 15.8908 135.328 17.2017H139.629C139.4 14.3233 137.164 12.5278 133.006 12.5278C129.537 12.5278 126.669 14.1238 126.669 17.2017C126.669 20.6215 129.393 21.3055 131.945 21.7331C133.895 22.0752 135.672 22.2176 135.672 23.5285C135.672 24.469 134.783 24.982 133.378 24.982C131.969 24.982 131.036 24.3893 130.751 23.1866H126.298C126.625 26.1862 129.274 28.0029 133.407 28.0029C137.249 28.0029 140.088 26.35 140.088 23.1582C140.088 19.4247 137.049 18.7692 134.469 18.3415Z" fill="#E60023"/>
<path d="M118.783 15.8337C120.302 15.8337 121.391 16.9451 121.563 18.6838H115.772C116.087 16.9451 117.004 15.8337 118.783 15.8337ZM119.041 24.6399C117.119 24.6399 116.03 23.4146 115.743 21.448H126.295C126.323 18.4843 125.463 15.9477 123.714 14.3519C122.452 13.2119 120.789 12.5278 118.696 12.5278C114.223 12.5278 111.155 15.8621 111.155 20.2227C111.155 24.6399 114.137 27.9745 118.983 27.9745C120.847 27.9745 122.337 27.49 123.571 26.635C124.861 25.7516 125.721 24.4975 126.037 23.1867H121.478C121.076 24.0986 120.273 24.6399 119.041 24.6399Z" fill="#E60023"/>
<path d="M148.319 24.1065C148.103 24.115 147.811 24.1276 147.544 24.1276C146.541 24.1276 145.91 23.8425 145.91 22.7025V15.8626H148.319V12.9557H145.91V8.33887H141.351V12.9557H139.917V15.8626H141.351V23.7C141.351 26.8351 143.301 27.7184 146.024 27.7184C147.064 27.7184 147.849 27.641 148.319 27.55V24.1065Z" fill="#E60023"/>
<path d="M87.0086 24.1132C86.8222 24.1203 86.607 24.1276 86.4059 24.1276C85.4025 24.1276 84.7715 23.8425 84.7715 22.7025V15.8627H87.0086V12.9557H84.7715V8.33887H80.2127V12.9557H78.6924V15.8627H80.2127V23.7C80.2127 26.8351 82.1623 27.7184 84.8863 27.7184C85.808 27.7184 86.5296 27.6574 87.0086 27.5801V24.1132Z" fill="#E60023"/>
<path d="M97.1885 18.6841C97.0165 16.9456 95.9268 15.834 94.4071 15.834C92.6295 15.834 91.7119 16.9456 91.3965 18.6841H97.1885ZM86.7803 20.223C86.7803 15.8626 89.8482 12.5283 94.3212 12.5283C96.4142 12.5283 98.0773 13.2122 99.3389 14.3522C101.088 15.9482 101.948 18.4845 101.919 21.4485H91.368C91.6546 23.4149 92.7441 24.6404 94.6654 24.6404C95.8981 24.6404 96.701 24.0989 97.1023 23.187H101.661C101.346 24.4979 100.486 25.7518 99.1954 26.6355C97.9627 27.4903 96.4717 27.9748 94.6078 27.9748C89.7621 27.9748 86.7803 24.6404 86.7803 20.223Z" fill="#E60023"/>
<path d="M50.6743 16.7462C52.5094 16.7462 53.5416 15.6632 53.5416 14.0386C53.5416 12.4143 52.4806 11.4168 50.6743 11.4168H47.09V16.7462H50.6743ZM42.3584 7.17041H50.4744C52.9688 7.17041 54.8039 7.85433 56.0655 9.05136C57.3845 10.2767 58.1301 12.0153 58.1301 14.0671C58.1301 17.9716 55.4061 20.7361 51.1912 20.7361H47.09V27.5474H42.3584V7.17041Z" fill="#E60023"/>
<path d="M35.9432 17.9714C35.9432 27.6578 28.043 35.5102 18.2978 35.5102C8.55252 35.5102 0.652344 27.6578 0.652344 17.9714C0.652344 8.28491 8.55252 0.432617 18.2978 0.432617C28.043 0.432617 35.9432 8.28491 35.9432 17.9714Z" fill="white"/>
<path d="M18.2978 0.432617C8.55252 0.432617 0.652344 8.28505 0.652344 17.9714C0.652344 25.4017 5.30338 31.7537 11.8673 34.3091C11.7131 32.9214 11.5737 30.7873 11.9285 29.2724C12.2491 27.9036 13.9976 20.5546 13.9976 20.5546C13.9976 20.5546 13.4698 19.5039 13.4698 17.9506C13.4698 15.5118 14.892 13.6911 16.6628 13.6911C18.1682 13.6911 18.8953 14.8145 18.8953 16.1616C18.8953 17.6665 17.9313 19.9163 17.434 22.0012C17.0182 23.7469 18.3147 25.1705 20.047 25.1705C23.1831 25.1705 25.5939 21.8837 25.5939 17.1392C25.5939 12.9397 22.5581 10.0037 18.2233 10.0037C13.2025 10.0037 10.2556 13.7468 10.2556 17.615C10.2556 19.1224 10.8398 20.7388 11.5688 21.6175C11.713 21.7912 11.7341 21.9434 11.6912 22.1206C11.5572 22.6745 11.2595 23.8659 11.2011 24.1097C11.1242 24.4307 10.9454 24.4988 10.611 24.3441C8.40716 23.3245 7.02928 20.1219 7.02928 17.5495C7.02928 12.017 11.0735 6.93605 18.6884 6.93605C24.8095 6.93605 29.5664 11.2716 29.5664 17.0657C29.5664 23.1102 25.7321 27.9748 20.41 27.9748C18.6219 27.9748 16.941 27.0515 16.3656 25.9609C16.3656 25.9609 15.4808 29.3096 15.2663 30.1302C14.868 31.6536 13.7926 33.5631 13.0733 34.7281C14.7242 35.2361 16.4788 35.5102 18.2978 35.5102C28.0431 35.5102 35.9434 27.6577 35.9434 17.9714C35.9434 8.28505 28.0431 0.432617 18.2978 0.432617Z" fill="#E60023"/>
</g>
<defs>
<clipPath id="clip0_73_1439">
<rect width="148" height="36" fill="white" transform="translate(0.5)"/>
</clipPath>
</defs>
</svg>
