<svg width="145" height="36" viewBox="0 0 145 36" fill="none" xmlns="http://www.w3.org/2000/svg">
<g clip-path="url(#clip0_73_1483)">
<path d="M45.898 28.4861L47.6554 24.3785C49.5797 25.8036 52.0895 26.5578 54.5998 26.5578C56.4406 26.5578 57.6119 25.8456 57.6119 24.756C57.5698 21.738 46.5256 24.0852 46.4416 16.4976C46.3996 12.6414 49.8304 9.66541 54.6838 9.66541C57.5698 9.66541 60.457 10.3782 62.5066 12.0132L60.8644 16.2084C58.9786 14.9958 56.6494 14.1504 54.4325 14.1504C52.9264 14.1504 51.922 14.8626 51.922 15.7853C51.964 18.7614 63.0928 17.1264 63.2182 24.3785C63.2182 28.3188 59.8708 31.0853 55.1014 31.0853C51.5878 31.0853 48.3665 30.2473 45.8975 28.4861H45.898ZM115.875 22.8912C115.431 23.6794 114.786 24.3353 114.005 24.792C113.224 25.2484 112.336 25.4891 111.432 25.4892C108.613 25.4892 106.328 23.1996 106.328 20.3753C106.328 17.5512 108.613 15.2616 111.432 15.2616C112.336 15.2616 113.224 15.5024 114.005 15.9589C114.786 16.4153 115.431 17.0714 115.875 17.8597L120.761 15.1476C118.931 11.877 115.44 9.66541 111.432 9.66541C105.528 9.66541 100.743 14.46 100.743 20.3753C100.743 26.2901 105.528 31.0853 111.432 31.0853C115.44 31.0853 118.931 28.8738 120.761 25.6033L115.875 22.8912ZM66.3887 30.666H72.4966V0.75H66.3892L66.3887 30.666ZM123.845 0.75V30.666H129.953V21.7032L137.191 30.666H144.998L135.794 20.0184L144.329 10.083H136.856L129.953 18.3432V0.75H123.845ZM91.3145 10.0842V12.516C90.3107 10.839 87.8422 9.66541 85.2485 9.66541C79.8934 9.66541 75.6682 14.4024 75.6682 20.3545C75.6682 26.3064 79.8934 31.0853 85.2485 31.0853C87.8422 31.0853 90.3107 29.9117 91.3145 28.2349V30.666H97.4224V10.0842H91.3145ZM91.3145 22.9326C90.4361 24.3996 88.5952 25.4886 86.5456 25.4886C83.7263 25.4886 81.4414 23.1996 81.4414 20.3753C81.4414 17.5512 83.7263 15.2616 86.5456 15.2616C88.5952 15.2616 90.4361 16.3932 91.3145 17.9016V22.9326Z" fill="#98A2B3"/>
<path d="M13.6412 0.0888672C11.6618 0.0888672 10.0574 1.69686 10.0574 3.67987C10.0569 4.15097 10.1493 4.61756 10.3291 5.05298C10.509 5.48841 10.7728 5.88414 11.1056 6.2176C11.4384 6.55106 11.8336 6.8157 12.2686 6.99642C12.7037 7.17714 13.1701 7.2704 13.6412 7.27087H17.2256V3.67987C17.2265 2.72838 16.8492 1.81553 16.177 1.1421C15.5048 0.468675 14.5927 0.0898215 13.6412 0.0888672ZM13.6412 9.66487H4.0838C2.1044 9.66487 0.5 11.2729 0.5 13.2565C0.5 15.2394 2.1044 16.8475 4.0838 16.8475H13.6418C15.6206 16.8475 17.2256 15.2394 17.2256 13.2565C17.2256 11.2729 15.6206 9.66487 13.6412 9.66487Z" fill="#98A2B3"/>
<path d="M36.3408 13.2565C36.3408 11.2729 34.7358 9.66487 32.7564 9.66487C30.777 9.66487 29.1727 11.2729 29.1727 13.2565V16.8475H32.7564C33.7079 16.8465 34.62 16.4676 35.2922 15.7943C35.9644 15.1208 36.3416 14.208 36.3408 13.2565ZM26.7834 13.2565V3.67987C26.7841 2.72838 26.407 1.81553 25.7348 1.1421C25.0626 0.468675 24.1505 0.0898215 23.199 0.0888672C21.2195 0.0888672 19.6152 1.69686 19.6152 3.67987V13.2559C19.6152 15.24 21.2195 16.8481 23.199 16.8481C24.1505 16.8471 25.0626 16.4682 25.7348 15.7949C26.407 15.1214 26.7841 14.2086 26.7834 13.2571" fill="#98A2B3"/>
<path d="M23.199 36.0003C24.1505 35.9994 25.0626 35.6205 25.7348 34.9471C26.407 34.2737 26.7841 33.3608 26.7834 32.4093C26.7841 31.4578 26.407 30.545 25.7348 29.8715C25.0626 29.1981 24.1505 28.8193 23.199 28.8183H19.6152V32.4093C19.6152 34.3924 21.2195 36.0003 23.199 36.0003ZM23.199 26.4243H32.757C34.7358 26.4243 36.3408 24.8164 36.3408 22.8328C36.3416 21.8812 35.9644 20.9684 35.2922 20.2949C34.62 19.6216 33.7079 19.2427 32.7564 19.2417H23.199C21.2195 19.2417 19.6152 20.8497 19.6152 22.8328C19.6147 23.3038 19.7071 23.7704 19.887 24.2058C20.0667 24.6413 20.3306 25.037 20.6634 25.3705C20.9962 25.7038 21.3913 25.9685 21.8265 26.1492C22.2615 26.33 22.7279 26.4233 23.199 26.4237" fill="#98A2B3"/>
<path d="M0.500002 22.8328C0.499529 23.3038 0.591851 23.7704 0.771698 24.2058C0.951545 24.6413 1.21539 25.037 1.54818 25.3705C1.88097 25.7038 2.27617 25.9685 2.71124 26.1492C3.1463 26.33 3.6127 26.4233 4.0838 26.4237C5.03529 26.4227 5.94745 26.0438 6.61964 25.3705C7.29182 24.697 7.669 23.7842 7.66821 22.8328V19.2417H4.0838C2.1044 19.2417 0.500002 20.8497 0.500002 22.8328ZM10.0574 22.8328V32.4088C10.0574 34.3924 11.6618 36.0003 13.6412 36.0003C14.5927 35.9994 15.5048 35.6205 16.177 34.9471C16.8492 34.2737 17.2265 33.3608 17.2256 32.4093V22.8328C17.226 22.3616 17.1337 21.8949 16.9539 21.4594C16.774 21.024 16.5101 20.6283 16.1773 20.2948C15.8444 19.9613 15.4491 19.6967 15.0139 19.516C14.5788 19.3353 14.1124 19.2421 13.6412 19.2417C11.6618 19.2417 10.0574 20.8497 10.0574 22.8328Z" fill="#98A2B3"/>
</g>
<defs>
<clipPath id="clip0_73_1483">
<rect width="144" height="36" fill="white" transform="translate(0.5)"/>
</clipPath>
</defs>
</svg>
