<svg width="87" height="36" viewBox="0 0 87 36" fill="none" xmlns="http://www.w3.org/2000/svg">
<g clip-path="url(#clip0_73_1489)">
<path d="M6.54385 14.05C6.54385 13.1185 7.30828 12.76 8.57459 12.76C10.39 12.76 12.6833 13.3096 14.4989 14.2891V8.67505C12.5161 7.88677 10.5573 7.5762 8.57459 7.5762C3.725 7.5762 0.5 10.1085 0.5 14.3369C0.5 20.93 9.5777 19.8791 9.5777 22.7219C9.5777 23.8206 8.6223 24.1791 7.28443 24.1791C5.30172 24.1791 2.76943 23.3668 0.762703 22.2679V27.9535C2.98443 28.9091 5.23 29.315 7.28443 29.315C12.2533 29.315 15.6694 26.8546 15.6694 22.5785C15.6456 15.4596 6.54385 16.7256 6.54385 14.05ZM22.6927 2.79849L16.8639 4.04062L16.84 23.1756C16.84 26.7114 19.4917 29.315 23.0273 29.315C24.9861 29.315 26.4194 28.9568 27.2077 28.5268V23.6773C26.4434 23.9879 22.6688 25.0868 22.6688 21.5512V13.0706H27.2077V7.98234H22.6688L22.6927 2.79849ZM34.6373 9.75005L34.255 7.98234H29.095V28.885H35.0673V14.7191C36.4766 12.8796 38.8656 13.2141 39.6061 13.4768V7.98234C38.8417 7.69562 36.0467 7.17005 34.6373 9.75005ZM41.0633 7.98234H47.0594V28.885H41.0633V7.98234ZM41.0633 6.16677L47.0594 4.87677V0.0273438L41.0633 1.29349V6.16677ZM59.5294 7.5762C57.1883 7.5762 55.6833 8.67505 54.8473 9.43964L54.5366 7.95849H49.2811V35.8128L55.2533 34.5468L55.2773 27.7862C56.1373 28.4073 57.4033 29.2912 59.5056 29.2912C63.7817 29.2912 67.6756 25.8512 67.6756 18.2785C67.6517 11.3506 63.71 7.5762 59.5294 7.5762ZM58.0961 24.0356C56.6867 24.0356 55.8504 23.5341 55.2773 22.9129L55.2533 14.05C55.8744 13.3573 56.7344 12.8796 58.0961 12.8796C60.27 12.8796 61.775 15.3162 61.775 18.4456C61.775 21.6468 60.2939 24.0356 58.0961 24.0356ZM86.5 18.5173C86.5 12.4018 83.5377 7.5762 77.8761 7.5762C72.1904 7.5762 68.7504 12.4019 68.7504 18.4696C68.7504 25.66 72.8117 29.2912 78.6404 29.2912C81.4833 29.2912 83.6333 28.6462 85.2577 27.7385V22.9606C83.6334 23.7729 81.77 24.2746 79.405 24.2746C77.0877 24.2746 75.0333 23.4623 74.7706 20.6435H86.4523C86.4523 20.3328 86.5 19.0906 86.5 18.5173ZM74.6989 16.2479C74.6989 13.5485 76.3473 12.4256 77.8523 12.4256C79.3094 12.4256 80.8623 13.5485 80.8623 16.2479H74.6989Z" fill="#98A2B3"/>
</g>
<defs>
<clipPath id="clip0_73_1489">
<rect width="86" height="35.9453" fill="white" transform="translate(0.5 0.0273438)"/>
</clipPath>
</defs>
</svg>
