<svg width="161" height="36" viewBox="0 0 161 36" fill="none" xmlns="http://www.w3.org/2000/svg">
<g clip-path="url(#clip0_73_1452)">
<path fill-rule="evenodd" clip-rule="evenodd" d="M130.77 10.8042C131.381 11.8594 131.581 13.0599 131.647 14.4096L131.734 16.2085V28.7877L131.823 30.5885C132 33.5294 134.169 35.704 137.133 35.889L138.924 35.9777V16.2085L139.013 14.4096C139.087 13.075 139.285 11.8518 139.906 10.7891C140.539 9.69902 141.447 8.79464 142.54 8.16673C143.633 7.53882 144.872 7.20948 146.132 7.21177C147.393 7.21407 148.63 7.54792 149.721 8.17981C150.811 8.81169 151.717 9.71937 152.345 10.8117C152.957 11.8669 153.148 13.0901 153.221 14.4096L153.31 16.2028V28.7877L153.399 30.5885C153.584 33.5445 155.736 35.7191 158.709 35.889L160.5 35.9777V14.4096C160.5 10.5957 158.985 6.938 156.289 4.24067C153.593 1.54335 149.936 0.0272546 146.122 0.025753C144.081 0.0236003 142.062 0.457088 140.202 1.29725C138.342 2.13742 136.682 3.36492 135.334 4.89775C133.985 3.36553 132.326 2.13832 130.465 1.29791C128.605 0.45749 126.587 0.0231628 124.546 0.023865C121.56 0.023865 118.789 0.929932 116.493 2.49478C115.093 0.931819 111.959 0.023865 110.16 0.023865V35.9777L111.959 35.889C114.968 35.6908 117.143 33.5747 117.26 30.5885L117.356 28.7877V16.2085L117.445 14.4096C117.52 13.0523 117.709 11.8594 118.323 10.7966C118.956 9.70725 119.864 8.80308 120.956 8.17441C122.048 7.54573 123.286 7.21453 124.546 7.21388C125.807 7.21415 127.046 7.54601 128.138 8.17617C129.231 8.80632 130.138 9.71262 130.77 10.8042ZM7.69001 35.8909L9.48893 35.9777H36.4538L36.3651 34.1845C36.1216 31.2284 34.0282 29.069 31.0627 28.8764L29.2638 28.7877H13.0868L34.6549 7.21199L34.5662 5.42062C34.4265 2.43438 32.2444 0.276809 29.2638 0.112583L27.4649 0.0314154L0.5 0.023865L0.588719 1.82279C0.824674 4.75051 2.94827 6.95527 5.88921 7.12516L7.69001 7.21388H23.8671L2.29892 28.7896L2.38764 30.5885C2.56508 33.5521 4.70377 35.6983 7.69001 35.889V35.8909ZM103.103 5.2866C104.772 6.95588 106.097 8.9377 107 11.1189C107.904 13.3001 108.369 15.6379 108.369 17.9989C108.369 20.3599 107.904 22.6977 107 24.8789C106.097 27.0601 104.772 29.0419 103.103 30.7112C99.7294 34.0817 95.156 35.975 90.3875 35.975C85.6189 35.975 81.0455 34.0817 77.6723 30.7112C70.6522 23.6911 70.6522 12.3067 77.6723 5.2866C79.3404 3.61788 81.3209 2.29408 83.5006 1.39077C85.6803 0.487462 88.0166 0.0223453 90.3761 0.021977C92.7394 0.0203362 95.0799 0.484634 97.2636 1.38831C99.4474 2.29199 101.432 3.61732 103.103 5.28849V5.2866ZM98.0154 10.3776C100.037 12.4011 101.173 15.1448 101.173 18.0055C101.173 20.8662 100.037 23.6099 98.0154 25.6335C95.9918 27.6555 93.2482 28.7914 90.3875 28.7914C87.5267 28.7914 84.7831 27.6555 82.7595 25.6335C80.7374 23.6099 79.6016 20.8662 79.6016 18.0055C79.6016 15.1448 80.7374 12.4011 82.7595 10.3776C84.7831 8.3555 87.5267 7.21965 90.3875 7.21965C93.2482 7.21965 95.9918 8.3555 98.0154 10.3776ZM52.646 0.021977C55.0056 0.0225932 57.342 0.488008 59.5217 1.39164C61.7015 2.29528 63.6819 3.61943 65.3498 5.28849C72.3718 12.3067 72.3718 23.693 65.3498 30.7112C61.9766 34.0817 57.4032 35.975 52.6347 35.975C47.8662 35.975 43.2928 34.0817 39.9195 30.7112C32.8994 23.6911 32.8994 12.3067 39.9195 5.2866C41.5877 3.61788 43.5681 2.29408 45.7478 1.39077C47.9276 0.487462 50.2639 0.0223453 52.6234 0.021977H52.646ZM60.2626 10.3738C62.2853 12.3975 63.4215 15.1415 63.4215 18.0027C63.4215 20.8638 62.2853 23.6079 60.2626 25.6316C58.239 27.6536 55.4954 28.7895 52.6347 28.7895C49.774 28.7895 47.0303 27.6536 45.0067 25.6316C42.9847 23.608 41.8488 20.8643 41.8488 18.0036C41.8488 15.1429 42.9847 12.3993 45.0067 10.3757C47.0303 8.35362 49.774 7.21776 52.6347 7.21776C55.4954 7.21776 58.239 8.35362 60.2626 10.3757V10.3738Z" fill="#98A2B3"/>
</g>
<defs>
<clipPath id="clip0_73_1452">
<rect width="160" height="35.9557" fill="white" transform="translate(0.5 0.0219727)"/>
</clipPath>
</defs>
</svg>
